HIERARCHY
ROOT root
{
  OFFSET 0 98.6856 0
  CHANNELS 6 Xposition Yposition Zposition Zrotation Xrotation Yrotation
  JOINT torso_1
  {
    OFFSET 0 5.37224 -1.21793
    CHANNELS 6 Xposition Yposition Zposition Zrotation Xrotation Yrotation
    JOINT torso_2
    {
      OFFSET 0 5.94127 1.13336
      CHANNELS 6 Xposition Yposition Zposition Zrotation Xrotation Yrotation
      JOINT torso_3
      {
        OFFSET -1.08535e-17 6.33601 0.121658
        CHANNELS 6 Xposition Yposition Zposition Zrotation Xrotation Yrotation
        JOINT torso_4
        {
          OFFSET -1.16841e-17 6.88189 -0.46916
          CHANNELS 6 Xposition Yposition Zposition Zrotation Xrotation Yrotation
          JOINT torso_5
          {
            OFFSET -2.08699e-17 8.0451 -1.59297
            CHANNELS 6 Xposition Yposition Zposition Zrotation Xrotation Yrotation
            JOINT torso_6
            {
              OFFSET -2.67949e-17 10.0463 -0.967353
              CHANNELS 6 Xposition Yposition Zposition Zrotation Xrotation Yrotation
              JOINT torso_7
              {
                OFFSET -3.07187e-17 11.1612 1.66806
                CHANNELS 6 Xposition Yposition Zposition Zrotation Xrotation Yrotation
                JOINT neck_1
                {
                  OFFSET -1.36661e-17 5.06312 0.756688
                  CHANNELS 6 Xposition Yposition Zposition Zrotation Xrotation Yrotation
                  JOINT neck_2
                  {
                    OFFSET -1.91632e-17 5.09976 0.446172
                    CHANNELS 6 Xposition Yposition Zposition Zrotation Xrotation Yrotation
                    JOINT head
                    {
                      OFFSET -2.12574e-17 5.10962 0.809285
                      CHANNELS 6 Xposition Yposition Zposition Zrotation Xrotation Yrotation
                      End Site
                      {
                        OFFSET 0 0.1 0
                      }
                    }
                  }
                }
                JOINT l_shoulder
                {
                  OFFSET 1.30426 -8.04703 7.96922
                  CHANNELS 6 Xposition Yposition Zposition Zrotation Xrotation Yrotation
                  JOINT l_up_arm
                  {
                    OFFSET 13.7035 3.43734 -3.45766
                    CHANNELS 6 Xposition Yposition Zposition Zrotation Xrotation Yrotation
                    JOINT l_low_arm
                    {
                      OFFSET 30.8964 0.0632652 0.14496
                      CHANNELS 6 Xposition Yposition Zposition Zrotation Xrotation Yrotation
                      JOINT l_hand
                      {
                        OFFSET 25.6348 0.0524902 0.120274
                        CHANNELS 6 Xposition Yposition Zposition Zrotation Xrotation Yrotation
                        End Site
                        {
                          OFFSET 0.1 0 0
                        }
                      }
                    }
                  }
                }
                JOINT r_shoulder
                {
                  OFFSET -1.30426 -8.04702 7.96912
                  CHANNELS 6 Xposition Yposition Zposition Zrotation Xrotation Yrotation
                  JOINT r_up_arm
                  {
                    OFFSET -13.7035 3.43734 -3.45766
                    CHANNELS 6 Xposition Yposition Zposition Zrotation Xrotation Yrotation
                    JOINT r_low_arm
                    {
                      OFFSET -30.8964 0.0632652 0.14496
                      CHANNELS 6 Xposition Yposition Zposition Zrotation Xrotation Yrotation
                      JOINT r_hand
                      {
                        OFFSET -25.6348 0.0524901 0.120274
                        CHANNELS 6 Xposition Yposition Zposition Zrotation Xrotation Yrotation
                        End Site
                        {
                          OFFSET -0.1 0 0
                        }
                      }
                    }
                  }
                }
              }
            }
          }
        }
      }
    }
  }
  JOINT l_up_leg
  {
    OFFSET 9.77065 -4.44866 2.1502
    CHANNELS 6 Xposition Yposition Zposition Zrotation Xrotation Yrotation
    JOINT l_low_leg
    {
      OFFSET -0.901622 -41.0132 -0.693059
      CHANNELS 6 Xposition Yposition Zposition Zrotation Xrotation Yrotation
      JOINT l_foot
      {
        OFFSET -2.46068 -42.7371 -6.39839
        CHANNELS 6 Xposition Yposition Zposition Zrotation Xrotation Yrotation
        JOINT l_toes
        {
          OFFSET 0.82413 -10.4558 13.2182
          CHANNELS 6 Xposition Yposition Zposition Zrotation Xrotation Yrotation
          End Site
          {
            OFFSET 0 0 0.1
          }
        }
      }
    }
  }
  JOINT r_up_leg
  {
    OFFSET -9.77065 -4.44866 2.1502
    CHANNELS 6 Xposition Yposition Zposition Zrotation Xrotation Yrotation
    JOINT r_low_leg
    {
      OFFSET 0.901622 -41.0132 -0.693059
      CHANNELS 6 Xposition Yposition Zposition Zrotation Xrotation Yrotation
      JOINT r_foot
      {
        OFFSET 2.46068 -42.7371 -6.39839
        CHANNELS 6 Xposition Yposition Zposition Zrotation Xrotation Yrotation
        JOINT r_toes
        {
          OFFSET -0.82413 -10.4558 13.2182
          CHANNELS 6 Xposition Yposition Zposition Zrotation Xrotation Yrotation
          End Site
          {
            OFFSET 0 0 0.1
          }
        }
      }
    }
  }
}
MOTION
Frames: 4
Frame Time: 0.02
-106.839 97.9608 -97.5531 39.0549 13.2875 -51.3214 0 5.37224 -1.21793 -2.50659 -1.65498 -3.77285 0 5.94127 1.13336 -1.68497 -2.45897 -2.06948 -1.08535e-17 6.33601 0.121658 -0.926534 2.79569 -1.70833 -1.16841e-17 6.88189 -0.46916 -0.230778 12.0999 -1.40825 -2.08699e-17 8.0451 -1.59297 -0.0469075 17.6716 -1.40093 -2.67949e-17 10.0463 -0.967353 0.0928807 21.1901 -1.81626 -3.07187e-17 11.1612 1.66806 -0.0577521 -0.0531309 -0.0277694 -1.36661e-17 5.06312 0.756688 -0.397944 5.93351 0.181299 -1.91632e-17 5.09976 0.446172 1.64073 3.31895 0.344107 -2.12574e-17 5.10962 0.809285 -2.1583 53.8643 2.23246 1.30426 -8.04703 7.96922 30.7874 -6.25613 24.032 13.7035 3.43734 -3.45766 -99.857 51.3072 -21.2219 30.8964 0.0632652 0.14496 10.7897 -6.69153 -64.1116 25.6348 0.0524902 0.120274 154.283 -75.9847 158.574 -1.30426 -8.04702 7.96912 -18.5026 -4.76793 -14.6647 -13.7035 3.43734 -3.45766 110.083 63.3216 -25.0087 -30.8964 0.0632652 0.14496 -11.876 -10.0562 81.05 -25.6348 0.0524901 0.120274 8.90043 -39.6395 0.507725 9.77065 -4.44866 2.1502 144.218 8.50482 -135.029 -0.901622 -41.0132 -0.693059 -168.194 42.4755 145.393 -2.46068 -42.7371 -6.39839 -26.4834 -4.75925 -17.4318 0.82413 -10.4558 13.2182 -2.7308e-14 -3.55328e-15 2.01269e-15 -9.77065 -4.44866 2.1502 -6.57695 -24.042 33.3893 0.901622 -41.0132 -0.693059 -0.296433 -1.10525 -0.0221525 2.46068 -42.7371 -6.39839 -15.1467 3.63444 -16.7017 -0.82413 -10.4558 13.2182 -6.16232e-15 -3.23025e-16 -1.24986e-14 
-106.868 98.1356 -97.5307 39.0768 13.3113 -51.3838 0 5.37224 -1.21793 -2.48039 -1.81429 -3.87418 0 5.94127 1.13336 -1.61751 -2.48605 -2.11001 -1.08535e-17 6.33601 0.121658 -0.857833 2.90076 -1.72643 -1.16841e-17 6.88189 -0.46916 -0.181093 12.3337 -1.41746 -2.08699e-17 8.0451 -1.59297 -0.0106999 17.8977 -1.43862 -2.67949e-17 10.0463 -0.967353 0.0612945 21.3319 -1.87798 -3.07187e-17 11.1612 1.66806 -0.05421 -0.0629382 -0.0265414 -1.36661e-17 5.06312 0.756688 -0.351093 6.13789 -0.111216 -1.91632e-17 5.09976 0.446172 1.80394 3.27918 0.179564 -2.12574e-17 5.10962 0.809285 -3.06571 52.8764 3.31813 1.30426 -8.04703 7.96922 30.5715 -6.65175 23.5223 13.7035 3.43734 -3.45766 -99.7155 50.4486 -21.2326 30.8964 0.0632652 0.14496 10.7662 -6.64445 -63.8612 25.6348 0.0524902 0.120274 155.531 -76.0908 159.622 -1.30426 -8.04702 7.96912 -18.3835 -5.00175 -14.3386 -13.7035 3.43734 -3.45766 109.219 62.9436 -24.2578 -30.8964 0.0632652 0.14496 -11.8498 -9.90382 80.3094 -25.6348 0.0524901 0.120274 9.91067 -39.4967 0.770369 9.77065 -4.44866 2.1502 148.05 17.9175 -138.812 -0.901622 -41.0132 -0.693059 -168.149 42.5678 145.365 -2.46068 -42.7371 -6.39839 -26.2383 -7.39119 -14.5508 0.82413 -10.4558 13.2182 9.88954e-15 4.22417e-16 -1.21756e-15 -9.77065 -4.44866 2.1502 -6.52168 -24.4273 33.6232 0.901622 -41.0132 -0.693059 -0.139532 -0.52048 -0.00971855 2.46068 -42.7371 -6.39839 -14.3428 3.70902 -16.5544 -0.82413 -10.4558 13.2182 -2.5842e-15 -4.84538e-16 -1.26601e-14 
-106.922 98.2744 -97.5298 39.0706 13.3237 -51.4067 0 5.37224 -1.21793 -2.4874 -1.93183 -3.98401 0 5.94127 1.13336 -1.57399 -2.49014 -2.15845 -1.08535e-17 6.33601 0.121658 -0.810636 3.00658 -1.75478 -1.16841e-17 6.88189 -0.46916 -0.144264 12.569 -1.44033 -2.08699e-17 8.0451 -1.59297 0.0158159 18.1418 -1.48503 -2.67949e-17 10.0463 -0.967353 0.02114 21.5074 -1.93143 -3.07187e-17 11.1612 1.66806 -0.0508891 -0.0733771 -0.0261531 -1.36661e-17 5.06312 0.756688 -0.304028 6.27205 -0.430357 -1.91632e-17 5.09976 0.446172 1.93931 3.18882 0.00215749 -2.12574e-17 5.10962 0.809285 -4.09066 51.9064 4.68879 1.30426 -8.04703 7.96922 30.3781 -7.06757 22.9259 13.7035 3.43734 -3.45766 -99.4407 49.5026 -21.2345 30.8964 0.0632652 0.14496 10.7528 -6.61763 -63.7182 25.6348 0.0524902 0.120274 155.961 -76.2895 159.681 -1.30426 -8.04702 7.96912 -18.3521 -5.20228 -14.0776 -13.7035 3.43734 -3.45766 108.453 62.4752 -23.4329 -30.8964 0.0632652 0.14496 -11.8225 -9.75657 79.5924 -25.6348 0.0524901 0.120274 11.1342 -39.2499 1.08472 9.77065 -4.44866 2.1502 152.823 27.2035 -144.018 -0.901622 -41.0132 -0.693059 -167.549 43.7816 144.976 -2.46068 -42.7371 -6.39839 -24.7865 -8.23825 -10.1883 0.82413 -10.4558 13.2182 3.32964e-14 2.21148e-15 -3.03147e-15 -9.77065 -4.44866 2.1502 -6.37769 -24.8598 33.8819 0.901622 -41.0132 -0.693059 0.0749975 0.279897 0.0047029 2.46068 -42.7371 -6.39839 -13.7104 3.70415 -16.4583 -0.82413 -10.4558 13.2182 -8.54774e-15 -2.23633e-16 -1.23992e-14 
-107.014 98.3747 -97.5517 39.0679 13.3582 -51.3967 0 5.37224 -1.21793 -2.53026 -2.01223 -4.1021 0 5.94127 1.13336 -1.55793 -2.51295 -2.21501 -1.08535e-17 6.33601 0.121658 -0.785068 3.07362 -1.79293 -1.16841e-17 6.88189 -0.46916 -0.121088 12.798 -1.4742 -2.08699e-17 8.0451 -1.59297 0.0286546 18.4221 -1.53359 -2.67949e-17 10.0463 -0.967353 -0.0332833 21.769 -1.9702 -3.07187e-17 11.1612 1.66806 -0.0486665 -0.0831796 -0.0269881 -1.36661e-17 5.06312 0.756688 -0.255837 6.26397 -0.697236 -1.91632e-17 5.09976 0.446172 2.07172 3.17097 -0.14118 -2.12574e-17 5.10962 0.809285 -5.04115 50.9085 6.10179 1.30426 -8.04703 7.96922 30.1914 -7.45292 22.3819 13.7035 3.43734 -3.45766 -99.25 48.5965 -21.123 30.8964 0.0632652 0.14496 10.7444 -6.60112 -63.6301 25.6348 0.0524902 0.120274 154.851 -77.0188 158.061 -1.30426 -8.04702 7.96912 -18.4534 -5.3581 -13.9712 -13.7035 3.43734 -3.45766 107.964 62.0577 -22.7088 -30.8964 0.0632652 0.14496 -11.796 -9.62283 78.94 -25.6348 0.0524901 0.120274 12.5411 -39.6011 1.67797 9.77065 -4.44866 2.1502 158.093 33.8033 -149.727 -0.901622 -41.0132 -0.693059 -166.131 46.4573 144.019 -2.46068 -42.7371 -6.39839 -22.4355 -7.15534 -5.5081 0.82413 -10.4558 13.2182 -2.05742e-14 -2.47238e-15 1.71452e-15 -9.77065 -4.44866 2.1502 -6.11179 -25.3441 34.098 0.901622 -41.0132 -0.693059 0.323084 1.20628 0.017655 2.46068 -42.7371 -6.39839 -13.5295 3.85178 -16.4253 -0.82413 -10.4558 13.2182 -8.54774e-15 -2.23633e-16 -1.23992e-14 
